<svg width="21" height="21" viewBox="0 0 21 21" fill="none" xmlns="http://www.w3.org/2000/svg">
<path fill-rule="evenodd" clip-rule="evenodd" d="M10.6918 6.09783C10.7528 6.03671 10.8252 5.98823 10.9049 5.95514C10.9847 5.92206 11.0701 5.90503 11.1564 5.90503C11.2428 5.90503 11.3282 5.92206 11.408 5.95514C11.4877 5.98823 11.5601 6.03671 11.6211 6.09783L15.5586 10.0353C15.6197 10.0963 15.6682 10.1687 15.7013 10.2484C15.7343 10.3282 15.7514 10.4136 15.7514 10.5C15.7514 10.5863 15.7343 10.6717 15.7013 10.7515C15.6682 10.8312 15.6197 10.9036 15.5586 10.9646L11.6211 14.9021C11.4978 15.0253 11.3307 15.0945 11.1564 15.0945C10.9822 15.0945 10.815 15.0253 10.6918 14.9021C10.5686 14.7789 10.4994 14.6117 10.4994 14.4375C10.4994 14.2632 10.5686 14.0961 10.6918 13.9728L14.166 10.5L10.6918 7.02708C10.6307 6.96612 10.5822 6.8937 10.5491 6.81397C10.5161 6.73424 10.499 6.64877 10.499 6.56245C10.499 6.47613 10.5161 6.39066 10.5491 6.31093C10.5822 6.2312 10.6307 6.15879 10.6918 6.09783Z" fill="white"/>
<path fill-rule="evenodd" clip-rule="evenodd" d="M5.25 10.5C5.25 10.326 5.31914 10.159 5.44221 10.036C5.56528 9.91289 5.7322 9.84375 5.90625 9.84375H14.4375C14.6115 9.84375 14.7785 9.91289 14.9015 10.036C15.0246 10.159 15.0938 10.326 15.0938 10.5C15.0938 10.674 15.0246 10.841 14.9015 10.964C14.7785 11.0871 14.6115 11.1562 14.4375 11.1562H5.90625C5.7322 11.1562 5.56528 11.0871 5.44221 10.964C5.31914 10.841 5.25 10.674 5.25 10.5Z" fill="white"/>
</svg>
