<svg width="192" height="192" viewBox="0 0 192 192" fill="none" xmlns="http://www.w3.org/2000/svg">
<path d="M32 31.9219L48 31.9219V15.9219L32 15.9219V31.9219Z" fill="#00C7FE"/>
<path d="M136 56H64V68H136V56Z" fill="#0068B5"/>
<path d="M136 124H64V136H136V124Z" fill="#0068B5"/>
<path d="M136 90H64V102H136V90Z" fill="#0068B5"/>
<path d="M137.2 176H40C37.8783 176 35.8434 175.157 34.3431 173.657C32.8429 172.157 32 170.122 32 168V40H48V160H130.8L152 139.6V32H56V16H160C162.122 16 164.157 16.8429 165.657 18.3431C167.157 19.8434 168 21.8783 168 24V146.48L137.2 176Z" fill="#0068B5"/>
</svg>
