<svg viewBox="0 0 126 117" fill="none" xmlns="http://www.w3.org/2000/svg" width='auto' height='100%'>
    <path d="M115.986 65.2215H52.0725V10.4576C52.0725 5.20744 47.7997 0.93457 42.5495 0.93457H9.88542C4.63327 0.93457 0.358398 5.20744 0.358398 10.4576V95.973C0.358398 101.225 4.63127 105.498 9.88542 105.498H20.9473V107.415C20.9473 112.667 25.2202 116.938 30.4723 116.938H115.986C121.238 116.938 125.511 112.667 125.511 107.415V74.7525C125.511 69.4964 121.238 65.2215 115.986 65.2215ZM9.88342 2.84717H42.5475C46.7444 2.84717 50.1579 6.26067 50.1579 10.4576V65.2195H47.4459V14.2408C47.4459 13.7132 47.0162 13.2855 46.4886 13.2855H5.94031C5.4127 13.2855 4.98301 13.7132 4.98301 14.2408V87.3573C4.98301 87.8849 5.4127 88.3126 5.94031 88.3126H20.9433V103.589H9.88342C5.6845 103.589 2.269 100.174 2.269 95.975V10.4576C2.269 6.26067 5.6845 2.84717 9.88342 2.84717ZM6.89561 15.2001H45.5293V65.2255H30.4703C25.2182 65.2255 20.9453 69.5004 20.9453 74.7545V86.402H6.89561V15.2001ZM115.986 115.023H30.4723C26.2734 115.023 22.8579 111.61 22.8579 107.413V74.7525C22.8579 70.5516 26.2734 67.1341 30.4723 67.1341H115.986C120.183 67.1341 123.598 70.5516 123.598 74.7525V107.415C123.598 111.61 120.183 115.023 115.986 115.023Z" fill="white"/>
    <path d="M30.7965 85.7646C27.8667 85.7646 25.4824 88.1489 25.4824 91.0808C25.4824 94.0106 27.8667 96.3929 30.7965 96.3929C33.7304 96.3929 36.1166 94.0106 36.1166 91.0808C36.1166 88.1489 33.7304 85.7646 30.7965 85.7646ZM30.7965 94.4823C28.9199 94.4823 27.393 92.9554 27.393 91.0808C27.393 89.2041 28.9199 87.6753 30.7965 87.6753C32.6751 87.6753 34.204 89.2041 34.204 91.0808C34.202 92.9554 32.6732 94.4823 30.7965 94.4823Z" fill="white"/>
    <path d="M112.206 69.8525H39.0891C38.5615 69.8525 38.1318 70.2822 38.1318 70.8098V111.356C38.1318 111.884 38.5615 112.311 39.0891 112.311H112.206C112.731 112.311 113.159 111.884 113.159 111.356V70.8078C113.159 70.2822 112.731 69.8525 112.206 69.8525ZM111.246 71.7631V110.401H40.0464V71.7631H111.246Z" fill="white"/>
    <path d="M63.3363 29.5493C76.6286 29.5493 87.7844 40.2434 88.4199 53.4858L82.3584 48.2136C81.9727 47.8839 81.3451 47.9298 81.0093 48.3095C80.6616 48.7053 80.7036 49.3108 81.0993 49.6606L88.8596 56.4056C89.0395 56.5555 89.2553 56.6354 89.4831 56.6354C89.7649 56.6354 90.0287 56.5135 90.2066 56.3037L96.9437 48.5554C97.2894 48.1557 97.2455 47.5521 96.8498 47.2064C96.462 46.8746 95.8345 46.9186 95.4987 47.3023L90.3185 53.2559C89.9588 46.4269 87.0629 40.0556 82.1265 35.2671C77.0542 30.3487 70.3811 27.6387 63.3323 27.6387C62.8047 27.6387 62.375 28.0684 62.375 28.596C62.375 29.1236 62.8067 29.5493 63.3363 29.5493Z" fill="white"/>
  </svg>
