<svg width="227" height="227" viewBox="0 0 227 227" fill="none" xmlns="http://www.w3.org/2000/svg">
<path d="M47.2917 103.853H28.375V122.769H47.2917V103.853Z" fill="#00C7FE"/>
<path d="M47.9538 132.417C50.9896 142.842 56.5082 152.376 64.0365 160.201C71.5647 168.025 80.8781 173.908 91.1783 177.344C83.0328 160.355 78.676 141.798 78.4096 122.959H57.4121V104.042H78.4096C78.6757 85.1421 83.0318 66.5238 91.1783 49.4675C80.8725 52.9502 71.5604 58.8711 64.0347 66.7262C56.5089 74.5813 50.9921 84.1383 47.9538 94.5838H28.375C33.0307 73.8707 45.1612 55.602 62.4449 43.2741C79.7286 30.9461 100.951 25.4249 122.052 27.767C143.152 30.1091 162.647 40.1501 176.807 55.9683C190.966 71.7864 198.795 92.2706 198.795 113.5C198.795 134.73 190.966 155.214 176.807 171.033C162.647 186.851 143.152 196.892 122.052 199.234C100.951 201.576 79.7286 196.055 62.4449 183.727C45.1612 171.399 33.0307 153.13 28.375 132.417H47.9538ZM112.46 48.0488C105.082 47.765 94.5833 69.8029 92.6917 104.042H132.417C130.43 69.8029 119.743 47.765 112.46 47.765V48.0488ZM178.668 123.053H146.415C146.135 141.861 141.778 160.384 133.646 177.344C145.502 173.378 156.019 166.189 164.021 156.584C172.022 146.979 177.192 135.336 178.952 122.959L178.668 123.053ZM146.131 104.137H178.668C176.898 91.7635 171.724 80.1256 163.724 70.5221C155.724 60.9186 145.212 53.7274 133.363 49.7513C141.567 66.6989 146.019 85.217 146.415 104.042L146.131 104.137ZM112.46 178.763C119.743 178.763 130.43 156.82 132.228 122.77H92.6917C94.5833 156.82 105.082 178.763 112.46 178.763Z" fill="#0068B5"/>
</svg>
