<svg width="13" height="16" viewBox="0 0 13 16" fill="none" xmlns="http://www.w3.org/2000/svg">
<g clip-path="url(#clip0_2655_5102)">
<path d="M11.9863 15.5002H1.0172C0.999467 15.4939 0.981381 15.4887 0.96304 15.4846C0.42576 15.3949 0.00247009 14.9004 0.00232488 14.3521C0.00155042 10.117 0.001986 5.88202 0.00363172 1.64708C0.00446673 1.55208 0.0177976 1.45762 0.0432743 1.36617C0.184129 0.847471 0.634863 0.501181 1.16663 0.501181C3.46841 0.500594 5.7702 0.500204 8.07198 0.500008C8.31605 0.499389 8.55892 0.534601 8.79295 0.60454C9.29916 0.756281 9.76587 0.981325 10.1454 1.36368C10.7973 2.02108 11.4467 2.68067 12.1001 3.33645C12.3141 3.54888 12.4927 3.79484 12.629 4.06481C12.8459 4.49745 13.001 4.94856 13.0012 5.44029C13.0022 8.40101 13.0022 11.3618 13.0012 14.3227C13.0029 14.5622 12.9315 14.7964 12.7968 14.9935C12.6621 15.1906 12.4706 15.3411 12.2482 15.4245C12.1639 15.4569 12.0738 15.4757 11.9863 15.5002ZM8.35892 5.18827V1.45605C8.26105 1.44989 8.16797 1.43889 8.07489 1.43875C5.79024 1.43787 3.50525 1.43674 1.21992 1.43537C1.03216 1.43537 0.927173 1.55266 0.927318 1.73035C0.930609 5.90929 0.930609 10.0883 0.927318 14.2675C0.927318 14.4541 1.03782 14.5658 1.22442 14.5657C4.74259 14.5622 8.26076 14.5622 11.7789 14.5657C11.9661 14.5657 12.0766 14.4518 12.0763 14.2673C12.0725 11.3351 12.0715 8.4034 12.0731 5.4721C12.0731 5.40657 12.0606 5.34104 12.0616 5.2755C12.0627 5.19985 12.0285 5.18651 11.96 5.18666C10.7921 5.1889 9.62424 5.18944 8.45636 5.18827H8.35892ZM9.28957 4.24543H11.658C11.6173 4.19455 11.5878 4.14969 11.5508 4.11231C10.8441 3.39764 10.1367 2.6836 9.42869 1.9702C9.38919 1.93047 9.34156 1.89866 9.28957 1.85643V4.24543Z" fill="white"/>
<path d="M6.66416 4.06728C6.65559 4.52397 6.60215 4.97626 6.53448 5.42752C6.48831 5.7354 6.43284 6.04181 6.38143 6.3491C6.37815 6.37014 6.3802 6.39168 6.38739 6.4117C6.67345 7.17143 7.08324 7.85096 7.66727 8.41658C7.8816 8.62418 8.13195 8.78193 8.39202 8.92223C8.4427 8.94965 8.52271 8.92766 8.58864 8.91945C9.15293 8.84805 9.71881 8.80304 10.2876 8.83896C10.5671 8.85655 10.8461 8.88793 11.1044 9.01093C11.155 9.03431 11.2025 9.06385 11.246 9.0989C11.3511 9.18686 11.4367 9.29052 11.4364 9.4361C11.4364 9.58637 11.4423 9.73973 11.4155 9.88604C11.3578 10.2007 11.14 10.3635 10.8028 10.3742C10.4565 10.3851 10.1203 10.3219 9.78837 10.2326C9.22422 10.081 8.68883 9.85701 8.17566 9.57728C8.14217 9.5591 8.10379 9.55226 8.06617 9.55778C7.46311 9.67683 6.85685 9.78268 6.25931 9.92519C5.71825 10.0543 5.18707 10.2246 4.65125 10.3756C4.6271 10.3817 4.60452 10.393 4.58502 10.4087C4.56552 10.4243 4.54953 10.444 4.53813 10.4663C4.24683 10.9752 3.94276 11.4766 3.58482 11.9409C3.35379 12.2398 3.10765 12.5251 2.78383 12.7282C2.56602 12.8653 2.33049 12.9455 2.07492 12.8612C1.93885 12.8163 1.80802 12.7493 1.68372 12.676C1.55942 12.6027 1.51556 12.4268 1.56087 12.2413C1.61561 12.0177 1.73788 11.8308 1.88367 11.6602C2.26761 11.2099 2.74114 10.8761 3.25199 10.5917C3.44425 10.4846 3.63971 10.3838 3.83284 10.2778C3.86242 10.2626 3.88748 10.2398 3.90544 10.2117C4.54698 9.06679 5.15426 7.90448 5.65509 6.68835C5.66899 6.64804 5.67121 6.60455 5.66148 6.563C5.54879 6.03521 5.42391 5.50991 5.32168 4.97963C5.24908 4.60343 5.22004 4.22034 5.25663 3.83608C5.26717 3.71987 5.28738 3.60477 5.31704 3.49199C5.37512 3.27676 5.53674 3.16695 5.7396 3.12957C5.87289 3.10676 6.00872 3.10325 6.143 3.11916C6.37983 3.1454 6.50094 3.31855 6.58952 3.52116C6.66575 3.69592 6.66532 3.88153 6.66416 4.06728ZM7.4573 9.10901C6.8554 8.63987 6.39726 8.06912 6.04106 7.42521C5.85737 7.83308 5.68384 8.24241 5.48998 8.64206C5.29613 9.04172 5.08107 9.43214 4.87182 9.83356C5.71099 9.5138 6.56948 9.28934 7.4573 9.10901ZM6.08535 5.42136H6.1157C6.15737 5.31565 6.20631 5.2123 6.23942 5.10395C6.36546 4.69345 6.35558 4.27737 6.27456 3.86056C6.24813 3.72407 6.21415 3.58787 6.11875 3.48114C6.09083 3.45301 6.05345 3.43653 6.01405 3.43496C5.99822 3.43496 5.97194 3.48979 5.96802 3.5219C5.9535 3.64021 5.94086 3.75925 5.93709 3.87845C5.92576 4.23984 5.94014 4.60035 5.9959 4.95793C6.01928 5.11333 6.05485 5.26698 6.08535 5.42136ZM9.36595 9.39314C9.36435 9.40223 9.36261 9.41117 9.36087 9.42026C9.70836 9.56687 10.0537 9.71905 10.4235 9.80335C10.6309 9.85056 10.8384 9.8642 11.0455 9.80335C11.1339 9.77755 11.1616 9.71539 11.1017 9.6456C11.0533 9.5893 10.9877 9.5333 10.919 9.51219C10.7542 9.46132 10.5841 9.40619 10.4139 9.39783C10.0654 9.38097 9.71547 9.39314 9.36595 9.39314ZM2.15899 12.4099C2.79211 12.0196 3.15572 11.3933 3.55302 10.796C2.99976 11.2564 2.47468 11.7409 2.15899 12.4099Z" fill="white"/>
</g>
<defs>
<clipPath id="clip0_2655_5102">
<rect width="13" height="15" fill="white" transform="translate(0 0.5)"/>
</clipPath>
</defs>
</svg>
